# xmcd CD database file
#
# Track frame offsets:
#	150
#	8925
#	20535
#	30436
#	43088
#	53710
#	67467
#	78489
#	89037
#	102818
#	115678
#	126226
#	138847
#	156848
#	166910
#	177387
#	197874
#	211412
#	225038
#
# Disc length: 3199 seconds
#
# Revision: 0
# Processed by: cddbd v1.5.2PL0 Copyright (c) Steve Scherf et al.
# Submitted via: CDex 1.51
#
DISCID=fe0c7d13
DTITLE=Various Artist - Classic Southern Gospel
DYEAR=1900
DGENRE=Country
TTITLE0=Bill Monroe and The Bluegrass Boys - I'm Working On A Building
TTITLE1=Dock Boggs - No Disappointment in Heaven
TTITLE2=Old Harp Singers of East Kentucky - Wondrous Love
TTITLE3=Red Allen - Are You Washed In The Blood
TTITLE4=Harry and Jeannie West - What Are They Doing In Heaven Today
TTITLE5=The Watson Family - The Lost Soul
TTITLE6=Neriah and Kenneth Benfield - Hallelujah Side
TTITLE7=The Country Gentlemen - Walking In Jerusalem
TTITLE8=The Lilly Brothers - Sinner, You'd Better Get Ready
TTITLE9=Bill Monroe and The Bluegrass Boys - When He Reached Down His Hand For Me
TTITLE10=The A L Phipps Family - Away Over In The Promised Land
TTITLE11=The Debuck Weaver Family - Glory To The Lamb
TTITLE12=Clarence Ashley, Doc Watson et al - Amazing Grace
TTITLE13=The Poplin Family - River Of Jordan
TTITLE14=Hazel Dickens and Alice Gerrard - Gabriel's Call
TTITLE15=Bill Monroe and Doc Watson - What Would You Give?
TTITLE16=The Stacer Quartet - He Said, If You Love Me, Feed My Sheep
TTITLE17=The Country Gentlemen - I Am A Pilgrim
TTITLE18=Indian Bottom Association of Regular Baptists - I'm Going To A City
EXTD=
EXTT0=
EXTT1=
EXTT2=
EXTT3=
EXTT4=
EXTT5=
EXTT6=
EXTT7=
EXTT8=
EXTT9=
EXTT10=
EXTT11=
EXTT12=
EXTT13=
EXTT14=
EXTT15=
EXTT16=
EXTT17=
EXTT18=
PLAYORDER=
